# xmcd CD database file
#
# Track frame offsets:
#	150
#	8425
#	15157
#	21115
#	26920
#	35210
#	40890
#	46765
#	54017
#	59827
#	66657
#	72905
#	79657
#	86157
#	92240
#	99050
#	105775
#	112907
#	119862
#	124737
#	130590
#	136682
#	143750
#	151390
#	158417
#	164632
#	170642
#	175772
#	180980
#	186262
#	191597
#	197170
#	203930
#	209897
#	215270
#	222027
#	227987
#	237210
#	245180
#	251452
#	257762
#	263810
#	270635
#	277485
#	284320
#	290672
#	296237
#	305680
#	312375
#	318897
#
# Disc length: 4396 seconds
#
# Revision: 5
# Processed by: cddbd v1.5.2PL0 Copyright (c) Steve Scherf et al.
# Submitted via: CDex 1.70beta2
#
DISCID=ec112a32
DTITLE=Various Artist - Super Eurobeat Vol.150 Anniversary Golden Hits Special Mega-Mix - Disc-1: SEB Golden Hits 50
DYEAR=2004
DGENRE=New Age
TTITLE0=Cherry - Yesterday
TTITLE1=Niko - Night Of Fire
TTITLE2=Mako - Dancer
TTITLE3=Go Go Girls - Hot Vampire
TTITLE4=Domino - Mickey Mouse March (Eurobeat Version)
TTITLE5=Domino - I Wanna Dance
TTITLE6=Dave, Domino and Virginelle - Anniversary
TTITLE7=Go Go Girls - One Night In Arabia
TTITLE8=Dave Simon - I Need Your Love
TTITLE9=Marko Polo - Money Go!
TTITLE10=Dave Rodgers - Made In Japan
TTITLE11=Edo - Too Young To Fall In Love
TTITLE12=Virginelle - Like A Virgin
TTITLE13=Domino - Tora Tora Tora
TTITLE14=Valentina - Harmony
TTITLE15=Mega NRG Man - Seventies
TTITLE16=Lolita - Try Me
TTITLE17=Virginelle - Hot Love and Emotion
TTITLE18=Love and Pride - Shotgun Killer
TTITLE19=Alexis - Sugar Baby
TTITLE20=Linda Ross - Love Is Danger
TTITLE21=Maio and Co. - Dark In The Night
TTITLE22=Mike Hammer - Heart Breaker
TTITLE23=The Big Brother - Wild Reputation
TTITLE24=King and Queen - King And Queen
TTITLE25=Virginelle - Fantasy
TTITLE26=Lisa Johnson - Doctor Doctor
TTITLE27=Karen - Hurricane
TTITLE28=DJ NRG - Kamikaze
TTITLE29=King and Queen - He-Hey Dancin'
TTITLE30=Nathalie - Heartbeat
TTITLE31=Niko - Speedway
TTITLE32=Dave Rodgers - Space Boy
TTITLE33=Mega NRG Man - Burning Desire
TTITLE34=D.Essex - Boom Boom Fire
TTITLE35=Dr. Love - Eurobeat
TTITLE36=Matt Land - Fever The Night
TTITLE37=Lolita - Beautiful Day
TTITLE38=Digital Planet - We'll See Heaven
TTITLE39=Nuage - Sunday
TTITLE40=Nuage - Don't Wanna Lose You Baby
TTITLE41=Christine - Me, Myself And I
TTITLE42=Manuel - Let's Go, Come On
TTITLE43=Dave Rodgers - The Race Is Over
TTITLE44=Baby Bazooka - Cocoa Bill
TTITLE45=Babby One - Jingle Jungle Boy
TTITLE46=Scream Team - Horror Fantasy
TTITLE47=Niko - Superbad
TTITLE48=Mad Max - Tsunami Comes
TTITLE49=Go 2 - Not For Sale
EXTD=YEAR: 2004
EXTT0=
EXTT1=
EXTT2=
EXTT3=
EXTT4=
EXTT5=
EXTT6=
EXTT7=
EXTT8=
EXTT9=
EXTT10=
EXTT11=
EXTT12=
EXTT13=
EXTT14=
EXTT15=
EXTT16=
EXTT17=
EXTT18=
EXTT19=
EXTT20=
EXTT21=
EXTT22=
EXTT23=
EXTT24=
EXTT25=
EXTT26=
EXTT27=
EXTT28=
EXTT29=
EXTT30=
EXTT31=
EXTT32=
EXTT33=
EXTT34=
EXTT35=
EXTT36=
EXTT37=
EXTT38=
EXTT39=
EXTT40=
EXTT41=
EXTT42=
EXTT43=
EXTT44=
EXTT45=
EXTT46=
EXTT47=
EXTT48=
EXTT49=
PLAYORDER=
